<svg width="41" height="43" viewBox="0 0 41 43" fill="none" xmlns="http://www.w3.org/2000/svg">
<path d="M9.65879 32.4218L5.44879 39.2077L5.89679 41.4272L8.01679 40.9532L12.2248 34.1715C11.3199 33.6716 10.461 33.0859 9.65879 32.4218ZM27.4828 30.0519C27.5108 29.9914 27.5288 29.9246 27.5548 29.8598C27.6608 29.6155 27.7548 29.3712 27.8308 29.1144C27.8428 29.0685 27.8488 29.0225 27.8628 28.9808C27.9408 28.7002 28.0062 28.4159 28.0588 28.1289V28.085C28.4488 25.6442 27.7688 22.9215 26.2128 20.4618L28.4328 16.883C30.9908 17.2234 33.2028 16.5511 34.2668 14.8327C36.1128 11.8615 33.8668 6.91505 29.2568 3.781C24.6428 0.644857 19.4108 0.513314 17.5688 3.48033C16.5008 5.20082 16.8128 7.58738 18.1548 9.89668L15.9308 13.4755C13.1528 12.989 10.4988 13.4421 8.52479 14.8118C8.51279 14.816 8.49879 14.8201 8.49079 14.8285C8.26015 14.9922 8.03847 15.1692 7.82679 15.3588C7.79279 15.3881 7.75279 15.4152 7.72479 15.4444C7.53278 15.6216 7.35175 15.8113 7.18279 16.0124C7.14279 16.0625 7.08679 16.1063 7.04879 16.1585C6.83578 16.4104 6.64186 16.6791 6.46879 16.9624C3.70079 21.416 6.06279 28.156 11.7348 32.0146C17.4108 35.8732 24.2548 35.3846 27.0168 30.931C27.1908 30.6491 27.3508 30.3547 27.4828 30.0519ZM25.8528 9.25985C24.0788 8.05509 23.2128 6.15503 23.9228 5.00873C24.6308 3.8666 26.6448 3.9188 28.4148 5.12357C30.1928 6.32833 31.0508 8.23256 30.3448 9.37469C29.6388 10.5168 27.6288 10.4646 25.8528 9.25985Z" fill="#009FAC"/>
</svg>
