<svg width="22" height="22" viewBox="0 0 22 22" fill="none" xmlns="http://www.w3.org/2000/svg">
<path d="M15.1248 11C15.1248 9.85417 14.7237 8.88021 13.9216 8.07812C13.1195 7.27604 12.1456 6.875 10.9998 6.875C9.85392 6.875 8.87996 7.27604 8.07788 8.07812C7.2758 8.88021 6.87476 9.85417 6.87476 11C6.87476 12.1458 7.2758 13.1198 8.07788 13.9219C8.87996 14.724 9.85392 15.125 10.9998 15.125C12.1456 15.125 13.1195 14.724 13.9216 13.9219C14.7237 13.1198 15.1248 12.1458 15.1248 11ZM-0.000244141 9.625V19.25C-0.000244141 20.0091 0.268311 20.6572 0.80542 21.1943C1.34253 21.7314 1.99064 22 2.74976 22H19.2498C20.0089 22 20.657 21.7314 21.1941 21.1943C21.7312 20.6572 21.9998 20.0091 21.9998 19.25V2.75C21.9998 1.99089 21.7312 1.34277 21.1941 0.805664C20.657 0.268555 20.0089 0 19.2498 0H2.74976C1.99064 0 1.34253 0.268555 0.80542 0.805664C0.268311 1.34277 -0.000244141 1.99089 -0.000244141 2.75V6.875H5.49976C6.14429 6.02995 6.94637 5.36035 7.90601 4.86621C8.86564 4.37207 9.89689 4.125 10.9998 4.125C12.1026 4.125 13.1339 4.37207 14.0935 4.86621C15.0531 5.36035 15.8552 6.02995 16.4998 6.875H21.9998V9.625H17.7458C17.8318 10.0833 17.8748 10.5417 17.8748 11C17.8748 12.2461 17.5668 13.3955 16.9509 14.4482C16.335 15.501 15.5007 16.3353 14.448 16.9512C13.3953 17.5671 12.2459 17.875 10.9998 17.875C9.75366 17.875 8.60425 17.5671 7.55151 16.9512C6.49878 16.3353 5.66447 15.501 5.04858 14.4482C4.4327 13.3955 4.12476 12.2461 4.12476 11C4.12476 10.5417 4.16772 10.0833 4.25366 9.625H-0.000244141Z" fill="#009FAC"/>
</svg>
